<svg xmlns="http://www.w3.org/2000/svg" width="512" height="512" viewBox="0 0 512 512">
  <defs>
    <linearGradient id="hue2" x1="0" y1="0" x2="1" y2="1">
      <stop offset="0" stop-color="#FFC15A"/><stop offset=".55" stop-color="#FF6F91"/><stop offset="1" stop-color="#7C5CFF"/>
    </linearGradient>
  </defs>
  <rect width="512" height="512" rx="112" fill="#14141A"/>
  <rect x="6" y="6" width="500" height="500" rx="106" fill="none" stroke="#2A2A34" stroke-width="4"/>
  <!-- glow arcs -->
  <g fill="none" stroke="url(#hue2)" stroke-width="10" stroke-linecap="round" opacity=".55">
    <path d="M150 176 A150 150 0 0 1 362 176"/>
    <path d="M120 208 A196 196 0 0 1 392 208"/>
  </g>
  <!-- bulb -->
  <path d="M256 150 a96 96 0 0 1 60 171 c-14 11 -18 20 -20 34 h-80 c-2 -14 -6 -23 -20 -34 a96 96 0 0 1 60 -171 Z" fill="url(#hue2)"/>
  <!-- base -->
  <rect x="214" y="366" width="84" height="20" rx="8" fill="#EDEDF2"/>
  <rect x="224" y="392" width="64" height="18" rx="8" fill="#C9C9D2"/>
  <!-- filament -->
  <path d="M236 300 q20 -34 40 0" fill="none" stroke="#14141A" stroke-width="8" stroke-linecap="round" opacity=".5"/>
</svg>
